HIERARCHY
ROOT Hips
{
  OFFSET -0.495941 0.00 -3.45682
  CHANNELS 6 Xposition Yposition Zposition Zrotation Xrotation Yrotation
  JOINT LHipJoint
  {
    OFFSET 0 0 0
    CHANNELS 3 Zrotation Xrotation Yrotation
    JOINT LeftUpLeg
    {
      OFFSET 1.8 -1.4 0.085
      CHANNELS 3 Zrotation Xrotation Yrotation
      JOINT LeftLeg
      {
        OFFSET 2.215 -6 0
        CHANNELS 3 Zrotation Xrotation Yrotation
        JOINT LeftFoot
        {
          OFFSET 2.5 -6.9 0
          CHANNELS 3 Zrotation Xrotation Yrotation
          JOINT LeftToeBase
          {
            OFFSET 0.2 -0.5 1.95
            CHANNELS 3 Zrotation Xrotation Yrotation
            End Site
            {
              OFFSET 0 0 1
            }
          }
        }
      }
    }
  }
  JOINT RHipJoint
  {
    OFFSET 0 0 0
    CHANNELS 3 Zrotation Xrotation Yrotation
    JOINT RightUpLeg
    {
      OFFSET -1.8 -1.4 0.085
      CHANNELS 3 Zrotation Xrotation Yrotation
      JOINT RightLeg
      {
        OFFSET -2.215 -6 0
        CHANNELS 3 Zrotation Xrotation Yrotation
        JOINT RightFoot
        {
          OFFSET -2.5 -6.9 0
          CHANNELS 3 Zrotation Xrotation Yrotation
          JOINT RightToeBase
          {
            OFFSET -0.2 -0.5 1.95
            CHANNELS 3 Zrotation Xrotation Yrotation
            End Site
            {
              OFFSET 0 0 1
            }
          }
        }
      }
    }
  }
  JOINT LowerBack
  {
    OFFSET 0 0 0
    CHANNELS 3 Zrotation Xrotation Yrotation
    JOINT Spine
    {
      OFFSET -0.087 1.94 -0.2889
      CHANNELS 3 Zrotation Xrotation Yrotation
      JOINT Spine1
      {
        OFFSET 0 1.95 0.06
        CHANNELS 3 Zrotation Xrotation Yrotation
        JOINT Neck
        {
          OFFSET 0 0 0
          CHANNELS 3 Zrotation Xrotation Yrotation
          JOINT Neck1
          {
            OFFSET 0 1.6 0.34
            CHANNELS 3 Zrotation Xrotation Yrotation
            JOINT Head
            {
              OFFSET 0 1.667 -0.24
              CHANNELS 3 Zrotation Xrotation Yrotation
              End Site
              {
                OFFSET 0 1.686 -0.12
              }
            }
          }
        }
        JOINT LeftShoulder
        {
          OFFSET 0 0 0
          CHANNELS 3 Zrotation Xrotation Yrotation
          JOINT LeftArm
          {
            OFFSET 2.7 1.55 -0.73
            CHANNELS 3 Zrotation Xrotation Yrotation
            JOINT LeftForeArm
            {
              OFFSET 5.45 0 0
              CHANNELS 3 Zrotation Xrotation Yrotation
              JOINT LeftHand
              {
                OFFSET 3.45 0 0
                CHANNELS 3 Zrotation Xrotation Yrotation
                JOINT LeftFingerBase
                {
                  OFFSET 0 0 0
                  CHANNELS 3 Zrotation Xrotation Yrotation
                  JOINT LeftHandIndex1
                  {
                    OFFSET 0.75 0 0
                    CHANNELS 3 Zrotation Xrotation Yrotation
                    End Site
                    {
                      OFFSET 0.6 0 0
                    }
                  }
                }
                JOINT LThumb
                {
                  OFFSET 0 0 0
                  CHANNELS 3 Zrotation Xrotation Yrotation
                  End Site
                  {
                    OFFSET 0.59 0 0.59
                  }
                }
              }
            }
          }
        }
        JOINT RightShoulder
        {
          OFFSET 0 0 0
          CHANNELS 3 Zrotation Xrotation Yrotation
          JOINT RightArm
          {
            OFFSET -2.7 1.55 -0.73
            CHANNELS 3 Zrotation Xrotation Yrotation
            JOINT RightForeArm
            {
              OFFSET -5.45 0 0
              CHANNELS 3 Zrotation Xrotation Yrotation
              JOINT RightHand
              {
                OFFSET -3.45 0 0
                CHANNELS 3 Zrotation Xrotation Yrotation
                JOINT RightFingerBase
                {
                  OFFSET 0 0 0
                  CHANNELS 3 Zrotation Xrotation Yrotation
                  JOINT RightHandIndex1
                  {
                    OFFSET -0.75 0 0
                    CHANNELS 3 Zrotation Xrotation Yrotation
                    End Site
                    {
                      OFFSET -0.6 0 0
                    }
                  }
                }
                JOINT RThumb
                {
                  OFFSET 0 0 0
                  CHANNELS 3 Zrotation Xrotation Yrotation
                  End Site
                  {
                    OFFSET -0.59 0 0.59
                  }
                }
              }
            }
          }
        }
      }
    }
  }
}
MOTION
Frames:	8
Frame Time:	0.00833333
6.02136 18.324 2.59461 3.78524 -5.70494 27.3655 3.97569e-016 -1.59028e-015 -6.36111e-015 -6.58823 -14.2346 5.91423 -4.59541 0.972738 -2.70355 -21.0943 34.2692 29.3321 1.11411e-006 -5.60573e-014 -2.8625e-014 3.97569e-016 -1.59028e-015 -6.36111e-015 15.1681 -4.75648 -1.85754 -4.11554 21.793 -10.2706 27.2676 20.5645 14.2001 -1.30299e-028 -3.81667e-014 -1.95604e-013 3.97569e-016 -1.59028e-015 -6.36111e-015 -5.72586 1.6663 -1.16332 1.75126 12.7163 -1.62155 3.86676 -8.79479 -5.46288 6.50002 28.0188 -7.35049 7.28198 15.4855 -15.8591 10.4943 0.0935411 16.5607 -83.6079 49.4986 -59.0645 32.7833 20.677 -69.2673 5.00598 2.65697 -27.5852 -5.1684e-015 7.55382e-015 -3.18055e-015 -7.95139e-016 -3.97569e-016 -6.36111e-015 -5.56597e-015 7.55382e-015 -0 -22.079 2.45361 -25.7779 78.3172 58.7115 58.3611 -11.6223 2.5484 89.4387 -5.38908 -2.4157e-005 1.67377e-006 -1.46289e-006 4.65295e-007 6.72178e-007 -6.36111e-015 -6.36111e-015 -1.59028e-015 3.18055e-015 6.36111e-015 6.36111e-015 
6.21021 18.3553 2.6222 3.67433 -5.51504 25.2926 -1.19271e-015 -7.95139e-016 6.36111e-015 -6.60263 -13.5537 6.21035 -4.60703 0.433164 -1.20734 -21.1149 34.034 29.1781 1.11411e-006 -6.26172e-014 -3.18055e-014 -1.19271e-015 -7.95139e-016 6.36111e-015 14.3904 -4.62849 -2.15366 -4.45563 20.6187 -10.1969 27.9843 22.3994 13.4831 -4.77083e-015 -4.45278e-014 -1.97194e-013 -1.19271e-015 -7.95139e-016 6.36111e-015 -5.56114 1.04274 -1.33892 1.96124 12.8436 -1.83658 3.56384 -8.47874 -5.39631 6.1513 28.3469 -7.19875 7.48457 15.4435 -16.0926 10.6834 0.118799 16.9153 -83.4594 49.5818 -59.4011 32.7455 20.1192 -69.4579 4.56414 2.8456 -28.341 1.98785e-015 -7.95139e-016 -9.54166e-015 -4.37326e-015 -2.18663e-015 -9.54166e-015 1.78906e-015 -3.97569e-016 -3.18055e-015 -22.0262 2.46768 -25.9929 78.1496 58.6657 58.7901 -11.6027 2.49752 89.6055 -5.38908 -2.4157e-005 1.67377e-006 -1.46289e-006 4.65295e-007 6.72178e-007 -6.36111e-015 0 -1.11319e-014 1.59028e-015 9.54166e-015 1.59028e-015 
6.3916 18.3875 2.65099 3.60425 -5.31506 23.3113 7.95139e-016 -1.59028e-015 3.18055e-015 -6.6812 -12.9101 6.4565 -4.59075 -0.0731145 0.208464 -21.1958 33.8872 28.9382 1.11411e-006 -5.86415e-014 -1.90833e-014 7.95139e-016 -1.59028e-015 3.18055e-015 13.5986 -4.57252 -2.44076 -4.68529 19.4757 -10.1733 28.5312 24.31 12.6481 -1.59028e-015 -3.49861e-014 -2.03555e-013 7.95139e-016 -1.59028e-015 3.18055e-015 -5.50235 0.517717 -1.51167 2.22908 12.9819 -2.06828 3.35786 -8.25879 -5.36557 5.91955 28.5743 -7.11176 7.51927 15.5106 -16.2786 10.9283 0.155355 17.3821 -83.1855 49.8278 -59.8939 32.4235 19.6143 -69.7572 4.60239 2.87314 -28.7775 -9.93923e-016 -7.55382e-015 3.18055e-015 9.93923e-017 -1.2921e-015 -0 -1.04362e-015 -7.25564e-015 6.36111e-015 -22.0252 2.49438 -26.2264 78.0438 58.6237 59.1359 -11.6215 2.45182 89.8341 -5.38908 -2.4157e-005 1.67377e-006 -1.46289e-006 4.65295e-007 6.72178e-007 -1.59028e-015 3.18055e-015 -6.36111e-015 -1.59028e-015 0 -3.18055e-015 
6.56582 18.4207 2.68323 3.60355 -5.10013 21.4378 -1.76556e-031 -1.59028e-015 -6.36111e-015 -6.84496 -12.2955 6.66339 -4.55981 -0.658181 1.86879 -21.2979 33.9727 28.4041 1.11411e-006 -5.26779e-014 -1.59028e-014 -1.76556e-031 -1.59028e-015 -6.36111e-015 12.7428 -4.60337 -2.72959 -4.80091 18.3476 -10.2595 28.9183 26.398 11.6875 -1.56959e-028 -4.45278e-014 -2.01965e-013 -1.76556e-031 -1.59028e-015 -6.36111e-015 -5.61244 0.102111 -1.68862 2.5901 13.1359 -2.33409 3.26714 -8.15346 -5.37715 5.82784 28.6818 -7.10214 7.33942 15.7208 -16.407 11.2478 0.204703 17.979 -82.7293 50.2698 -60.5912 31.6837 19.1526 -70.246 5.32022 2.66848 -28.7178 3.18055e-015 3.8763e-015 -9.54166e-015 5.46658e-015 1.88845e-015 -3.18055e-015 3.23025e-015 4.17448e-015 -3.18055e-015 -22.0644 2.52856 -26.4607 78.0384 58.576 59.362 -11.6903 2.38591 90.1451 -5.38908 -2.4157e-005 1.67377e-006 -1.46289e-006 4.65295e-007 6.72178e-007 0 0 -0 -3.18055e-015 0 3.18055e-015 
6.73431 18.4532 2.71767 3.64275 -4.87038 19.6472 -1.98785e-016 0 -0 -7.0556 -11.725 6.82725 -4.49757 -1.26859 3.61873 -21.5081 34.2085 27.7732 1.11411e-006 -6.48038e-014 -2.22639e-014 -1.98785e-016 0 -0 11.8655 -4.71368 -3.0037 -4.84364 17.2624 -10.3963 29.2251 28.5408 10.6031 2.38542e-015 -3.81667e-014 -2.04351e-013 -1.98785e-016 0 -0 -5.81785 -0.237783 -1.86675 3.00588 13.2959 -2.62035 3.24612 -8.11615 -5.41392 5.82091 28.7179 -7.13904 7.05038 15.997 -16.5059 11.6076 0.262195 18.6645 -82.1462 50.8143 -61.4474 30.6877 18.7145 -70.7871 6.37606 2.3531 -28.4621 -2.78299e-015 -3.37934e-015 -3.18055e-015 -5.96354e-016 5.36719e-015 -9.54166e-015 -2.5842e-015 -2.98177e-015 3.18055e-015 -22.1332 2.56945 -26.7014 78.0873 58.5234 59.516 -11.787 2.27452 90.4941 -5.38908 -2.4157e-005 1.67377e-006 -1.46289e-006 4.65295e-007 6.72178e-007 -3.18055e-015 3.18055e-015 -0 -3.53113e-031 6.36111e-015 3.18055e-015 
6.89789 18.4834 2.75114 3.67057 -4.6334 17.9047 9.93923e-016 7.95139e-016 6.36111e-015 -7.26095 -11.218 6.93529 -4.40438 -1.75482 5.02533 -21.9345 34.3959 27.3996 1.11411e-006 -6.16232e-014 -3.18055e-014 9.93923e-016 7.95139e-016 6.36111e-015 11.0462 -4.88347 -3.2404 -4.84531 16.2571 -10.4811 29.5116 30.5435 9.39267 -7.95139e-016 -4.13472e-014 -1.98785e-013 9.93923e-016 7.95139e-016 6.36111e-015 -6.00118 -0.537865 -2.03698 3.41314 13.4505 -2.8998 3.24315 -8.09385 -5.45657 5.83581 28.7381 -7.18741 6.77713 16.2482 -16.6061 11.9635 0.322752 19.39 -81.5288 51.3565 -62.3852 29.6874 18.2982 -71.2005 7.31089 2.09225 -28.4069 4.57205e-015 1.19271e-015 -0 9.93923e-015 -1.98785e-015 -6.36111e-015 4.77083e-015 1.59028e-015 3.18055e-015 -22.2346 2.62128 -26.9697 78.1185 58.476 59.6694 -11.8839 2.12012 90.8259 -5.38908 -2.4157e-005 1.67377e-006 -1.46289e-006 4.65295e-007 6.72178e-007 -7.06225e-031 -6.36111e-015 -6.36111e-015 -6.36111e-015 0 -3.18055e-015 
7.05729 18.5098 2.78055 3.63696 -4.39557 16.178 3.97569e-016 -7.95139e-016 -0 -7.41139 -10.7948 6.97256 -4.30689 -1.97146 5.65627 -22.6935 34.3427 27.6415 1.11411e-006 -6.44062e-014 -2.22639e-014 3.97569e-016 -7.95139e-016 -0 10.3631 -5.09693 -3.41653 -4.82774 15.3697 -10.4153 29.8066 32.2145 8.0603 -1.19271e-015 -4.13472e-014 -1.97194e-013 3.97569e-016 -7.95139e-016 -0 -6.04959 -0.833716 -2.19086 3.75123 13.5886 -3.14657 3.20816 -8.03481 -5.48653 5.81153 28.7967 -7.21348 6.64179 16.3855 -16.7377 12.2733 0.381509 20.108 -80.9869 51.7964 -63.3096 28.9341 17.9097 -71.3104 7.66359 2.05431 -28.9536 9.93923e-015 3.97569e-015 -6.36111e-015 4.37326e-015 -2.38542e-015 3.18055e-015 1.03368e-014 3.97569e-015 -0 -22.3723 2.68826 -27.2866 78.0602 58.4437 59.8923 -11.9549 1.94873 91.0995 -5.38908 -2.4157e-005 1.67377e-006 -1.46289e-006 4.65295e-007 6.72178e-007 3.18055e-015 -6.36111e-015 -3.18055e-015 9.54166e-015 -3.18055e-015 3.18055e-015 
7.21171 18.5333 2.80568 3.53825 -4.14984 14.4889 -3.97569e-016 7.95139e-016 -3.18055e-015 -7.5258 -10.4831 6.90068 -4.22485 -1.86249 5.34664 -23.8235 34.0311 28.6401 1.11411e-006 -6.20208e-014 -3.18055e-014 -3.97569e-016 7.95139e-016 -3.18055e-015 9.82404 -5.4079 -3.51572 -4.75659 14.6529 -10.1845 29.941 33.558 6.63155 1.59028e-015 -4.13472e-014 -1.93616e-013 -3.97569e-016 7.95139e-016 -3.18055e-015 -5.97739 -1.13651 -2.33429 4.04051 13.7087 -3.37195 3.14154 -7.93429 -5.50695 5.74989 28.898 -7.22115 6.6571 16.4021 -16.9162 12.5383 0.437367 20.8112 -80.6148 52.1076 -64.1656 28.486 17.5649 -70.994 7.30335 2.30431 -30.3815 -3.57812e-015 -2.38542e-015 -3.18055e-015 -1.59028e-015 -1.59028e-015 -9.54166e-015 -2.78299e-015 -2.38542e-015 -0 -22.5617 2.77351 -27.6591 77.8833 58.4349 60.195 -11.9994 1.74625 91.3142 -5.38908 -2.4157e-005 1.67377e-006 -1.46289e-006 4.65295e-007 6.72178e-007 0 0 -3.18055e-015 6.36111e-015 3.18055e-015 3.18055e-015 
